
<?xml version="1.0" encoding="utf-8"?>
<!-- Generator: Adobe Illustrator 23.0.4, SVG Export Plug-In . SVG Version: 6.00 Build 0)  -->
<svg version="1.1" id="Layer_1" xmlns="http://www.w3.org/2000/svg" xmlns:xlink="http://www.w3.org/1999/xlink" x="0px" y="0px"
	 viewBox="0 0 18.7 18.7" style="enable-background:new 0 0 18.7 18.7;" xml:space="preserve">
<style type="text/css">
	.st0{fill:#EFC046;}
	.st1{fill-rule:evenodd;clip-rule:evenodd;fill:#F2AE00;}
	.st2{fill-rule:evenodd;clip-rule:evenodd;fill:url(#SVGID_1_);}
	.st3{fill:#FFFFFF;}
	.st4{fill:none;stroke:#CB9200;stroke-width:1.5;stroke-linecap:round;stroke-linejoin:round;}
</style>
<path class="st0" d="M17.4,4.7C20,9.1,18.5,14.8,14,17.4C9.5,20,3.8,18.5,1.3,14C-1.3,9.5,0.2,3.8,4.7,1.3
	C9.1-1.3,14.8,0.2,17.4,4.7z"/>
<path class="st1" d="M13.4,16.4c3.9-2.2,5.2-7.2,3-11.1c-2.2-3.9-7.2-5.2-11.1-3c-3.9,2.2-5.2,7.2-3,11.1
	C4.6,17.3,9.5,18.6,13.4,16.4z M14,17.4c4.5-2.6,6-8.3,3.4-12.8c-2.6-4.5-8.3-6-12.7-3.4C0.2,3.8-1.3,9.5,1.3,14
	C3.8,18.5,9.5,20,14,17.4z"/>
<linearGradient id="SVGID_1_" gradientUnits="userSpaceOnUse" x1="4.6639" y1="17.0474" x2="14.0041" y2="0.8876" gradientTransform="matrix(1 0 0 -1 0 18.3015)">
	<stop  offset="0" style="stop-color:#FFFFFF"/>
	<stop  offset="1" style="stop-color:#FFFFFF;stop-opacity:0"/>
</linearGradient>
<path class="st2" d="M13.4,16.4c3.9-2.2,5.2-7.2,3-11.1c-2.2-3.9-7.2-5.2-11.1-3c-3.9,2.2-5.2,7.2-3,11.1
	C4.6,17.3,9.5,18.6,13.4,16.4z M14,17.4c4.5-2.6,6-8.3,3.4-12.8c-2.6-4.5-8.3-6-12.7-3.4C0.2,3.8-1.3,9.5,1.3,14
	C3.8,18.5,9.5,20,14,17.4z"/>
<path class="st3" d="M5.6,3.3C5.6,3.3,5.7,3.3,5.6,3.3L6,4c0,0,0,0,0,0l0.8,0.3c0,0,0,0,0,0.1L6,4.6c0,0,0,0,0,0L5.7,5.3
	c0,0,0,0-0.1,0L5.3,4.6c0,0,0,0,0,0L4.5,4.4c0,0,0,0,0-0.1l0.8-0.3c0,0,0,0,0,0L5.6,3.3z"/>
<path class="st4" d="M9.1,9.9v4"/>
<path class="st4" d="M11,6.3L9.1,9.9L7.2,6.3"/>
<path class="st4" d="M7.6,10.3h2.9"/>
<path class="st4" d="M7.6,12.5h2.9"/>
</svg>
