<svg width="49" height="48" viewBox="0 0 49 48" fill="none" xmlns="http://www.w3.org/2000/svg">
<rect width="48.31" height="48" fill="none"/>
<path d="M11.2178 36.9375H16.8428C18.0854 36.9375 19.0928 35.9301 19.0928 34.6875V32.4375C19.0928 31.1949 18.0854 30.1875 16.8428 30.1875H11.2178" stroke="#7A327E" stroke-width="1.25" stroke-linecap="round" stroke-linejoin="round"/>
<path d="M16.8428 36.9375H35.4053C36.6428 36.9375 37.0928 35.9306 37.0928 34.6875V32.4375C37.0928 31.2 36.6428 30.1875 35.4053 30.1875H16.8428" stroke="#7A327E" stroke-width="1.25" stroke-linecap="round" stroke-linejoin="round"/>
<path d="M32.5928 30.1875V36.9375" stroke="#7A327E" stroke-width="1.25" stroke-linecap="round" stroke-linejoin="round"/>
<path d="M30.3428 30.1875V36.9375" stroke="#7A327E" stroke-width="1.25" stroke-linecap="round" stroke-linejoin="round"/>
<path d="M25.8428 30.1875V36.9375" stroke="#7A327E" stroke-width="1.25" stroke-linecap="round" stroke-linejoin="round"/>
<path d="M23.5928 30.1875V36.9375" stroke="#7A327E" stroke-width="1.25" stroke-linecap="round" stroke-linejoin="round"/>
<path d="M16.8428 34.6875H12.3428" stroke="#7A327E" stroke-width="1.25" stroke-linecap="round" stroke-linejoin="round"/>
<path d="M16.8428 32.4375H12.3428" stroke="#7A327E" stroke-width="1.25" stroke-linecap="round" stroke-linejoin="round"/>
<path d="M24.1553 14.4375V26.8125" stroke="#7A327E" stroke-width="1.25" stroke-linecap="round" stroke-linejoin="round"/>
<path d="M11.2178 20.0231L15.1553 12.1875L19.0928 20.0231" stroke="#7A327E" stroke-width="1.25" stroke-linecap="round" stroke-linejoin="round"/>
<path fill-rule="evenodd" clip-rule="evenodd" d="M24.1553 14.4375C25.0873 14.4375 25.8428 13.682 25.8428 12.75C25.8428 11.818 25.0873 11.0625 24.1553 11.0625C23.2233 11.0625 22.4678 11.818 22.4678 12.75C22.4678 13.682 23.2233 14.4375 24.1553 14.4375Z" stroke="#7A327E" stroke-width="1.25" stroke-linecap="round" stroke-linejoin="round"/>
<path fill-rule="evenodd" clip-rule="evenodd" d="M15.1555 24C16.2076 24.0262 17.2244 23.6198 17.9686 22.8756C18.7128 22.1314 19.1192 21.1146 19.093 20.0625H11.218C11.1918 21.1146 11.5982 22.1314 12.3424 22.8756C13.0866 23.6198 14.1034 24.0262 15.1555 24V24Z" stroke="#7A327E" stroke-width="1.25" stroke-linecap="round" stroke-linejoin="round"/>
<path d="M37.0928 20.1007L33.1553 12.1875L29.2178 20.1007" stroke="#7A327E" stroke-width="1.25" stroke-linecap="round" stroke-linejoin="round"/>
<path fill-rule="evenodd" clip-rule="evenodd" d="M33.1555 24C32.1034 24.0262 31.0866 23.6198 30.3424 22.8756C29.5982 22.1314 29.1918 21.1146 29.218 20.0625H37.093C37.1192 21.1146 36.7128 22.1314 35.9686 22.8756C35.2244 23.6198 34.2076 24.0262 33.1555 24Z" stroke="#7A327E" stroke-width="1.25" stroke-linecap="round" stroke-linejoin="round"/>
<path d="M25.7402 12.1875H34.8426" stroke="#7A327E" stroke-width="1.25" stroke-linecap="round" stroke-linejoin="round"/>
<path d="M13.4678 12.1875H22.5701" stroke="#7A327E" stroke-width="1.25" stroke-linecap="round" stroke-linejoin="round"/>
<path fill-rule="evenodd" clip-rule="evenodd" d="M20.7803 30.1875C20.7803 28.3235 22.2913 26.8125 24.1553 26.8125C26.0192 26.8125 27.5303 28.3235 27.5303 30.1875H20.7803Z" stroke="#7A327E" stroke-width="1.25" stroke-linecap="round" stroke-linejoin="round"/>
</svg>
