
<svg width="49" height="48" viewBox="0 0 49 48" fill="none" xmlns="http://www.w3.org/2000/svg">
<rect width="48.31" height="48" transform="translate(0.238281)" fill="none"/>
<path d="M14.8135 27.1932H17.6874C17.8885 27.1932 18.0778 27.0986 18.1984 26.9378L19.3812 25.3603C19.5056 25.1945 19.7027 25.0995 19.9099 25.1053C20.1171 25.1111 20.3086 25.2172 20.4235 25.3897L21.8668 27.5611C21.9932 27.7504 22.2107 27.8581 22.4378 27.8438C22.665 27.8296 22.8674 27.6957 22.9692 27.4921L24.9362 23.5593C25.0539 23.3237 25.3042 23.1845 25.5665 23.2088C25.8287 23.2331 26.0492 23.4159 26.1216 23.6691L27.7744 29.4528C27.8468 29.706 28.0673 29.8888 28.3295 29.9131C28.5918 29.9374 28.8421 29.7983 28.9598 29.5627L29.965 27.5522C30.0733 27.3361 30.2943 27.1996 30.536 27.1996H33.9733" stroke="#73289B" stroke-width="1.25" stroke-linecap="round" stroke-linejoin="round"/>
<path d="M30.1412 13.1428H35.2505C35.956 13.1428 36.5278 13.7147 36.5278 14.4201V37.4119C36.5278 38.1173 35.956 38.6892 35.2505 38.6892H13.5361C12.8307 38.6892 12.2588 38.1173 12.2588 37.4119V14.4201C12.2588 13.7147 12.8307 13.1428 13.5361 13.1428H18.6454" stroke="#73289B" stroke-width="1.25" stroke-linecap="round" stroke-linejoin="round"/>
<path fill-rule="evenodd" clip-rule="evenodd" d="M26.9481 11.8654C26.9481 10.4545 25.8043 9.31079 24.3934 9.31079C22.9826 9.31079 21.8388 10.4545 21.8388 11.8654H19.2842C18.9314 11.8654 18.6455 12.1514 18.6455 12.5041V16.336C18.6455 16.6888 18.9314 16.9747 19.2842 16.9747H29.5027C29.8554 16.9747 30.1414 16.6888 30.1414 16.336V12.5041C30.1414 12.1514 29.8554 11.8654 29.5027 11.8654H26.9481Z" stroke="#73289B" stroke-width="1.25" stroke-linecap="round" stroke-linejoin="round"/>
<path d="M33.9736 24.7202V16.3359C33.9736 15.9832 33.6876 15.6973 33.3349 15.6973H30.1416" stroke="#73289B" stroke-width="1.25" stroke-linecap="round" stroke-linejoin="round"/>
<path d="M14.8135 29.8296V34.2184C14.8135 34.5711 15.0994 34.8571 15.4521 34.8571H33.3346C33.6873 34.8571 33.9733 34.5711 33.9733 34.2184V29.7478" stroke="#73289B" stroke-width="1.25" stroke-linecap="round" stroke-linejoin="round"/>
<path d="M18.6454 15.6973H15.4521C15.0994 15.6973 14.8135 15.9832 14.8135 16.3359V24.7202" stroke="#73289B" stroke-width="1.25" stroke-linecap="round" stroke-linejoin="round"/>
</svg>
