
<svg width="49" height="48" viewBox="0 0 49 48" fill="none" xmlns="http://www.w3.org/2000/svg">
<rect width="48.31" height="48" transform="translate(0.428711)" fill="none"/>
<path d="M18.7715 15.7217V36.2398" stroke="#933598" stroke-width="1.25" stroke-linecap="round" stroke-linejoin="round"/>
<path d="M27.8125 22.1801V9.41064" stroke="#933598" stroke-width="1.25" stroke-linecap="round" stroke-linejoin="round"/>
<path d="M26.5212 30.852L19.147 36.1194C18.9223 36.2802 18.62 36.2802 18.3953 36.1194L9.99945 30.1222C9.82986 30.0008 9.72932 29.805 9.72949 29.5965V10.5173C9.72978 10.2754 9.86521 10.0539 10.0804 9.94345C10.2956 9.833 10.5545 9.85205 10.7512 9.99284L18.7712 15.7214L27.437 9.533C27.6617 9.37214 27.9639 9.37214 28.1887 9.533L36.5845 15.5302C36.7541 15.6516 36.8547 15.8474 36.8545 16.0559V22.1823" stroke="#933598" stroke-width="1.25" stroke-linecap="round" stroke-linejoin="round"/>
<path fill-rule="evenodd" clip-rule="evenodd" d="M34.2712 24.7634C37.1246 24.7634 39.4378 27.0766 39.4378 29.9301C39.4378 32.2306 36.0795 36.6984 34.7775 38.344C34.655 38.4987 34.4685 38.5889 34.2712 38.5889C34.0738 38.5889 33.8873 38.4987 33.7648 38.344C32.4628 36.6984 29.1045 32.2306 29.1045 29.9301C29.1045 27.0766 31.4177 24.7634 34.2712 24.7634Z" stroke="#933598" stroke-width="1.25" stroke-linecap="round" stroke-linejoin="round"/>
<path fill-rule="evenodd" clip-rule="evenodd" d="M34.2715 31.8677C35.3415 31.8677 36.209 31.0002 36.209 29.9302C36.209 28.8601 35.3415 27.9927 34.2715 27.9927C33.2014 27.9927 32.334 28.8601 32.334 29.9302C32.334 31.0002 33.2014 31.8677 34.2715 31.8677Z" stroke="#933598" stroke-width="1.25" stroke-linecap="round" stroke-linejoin="round"/>
</svg>
