
<svg width="49" height="48" viewBox="0 0 49 48" fill="none" xmlns="http://www.w3.org/2000/svg">
<rect width="48.31" height="48" transform="translate(0.619141)" fill="none"/>
<path fill-rule="evenodd" clip-rule="evenodd" d="M22.3835 19.7721C28.7232 19.7721 33.8626 17.6082 33.8626 14.9388C33.8626 12.2694 28.7232 10.1055 22.3835 10.1055C16.0437 10.1055 10.9043 12.2694 10.9043 14.9388C10.9043 17.6082 16.0437 19.7721 22.3835 19.7721Z" stroke="#AC41C7" stroke-width="1.25" stroke-linecap="round" stroke-linejoin="round"/>
<path d="M22.3835 24.6043C16.0445 24.6043 10.9043 22.4414 10.9043 19.771" stroke="#AC41C7" stroke-width="1.25" stroke-linecap="round" stroke-linejoin="round"/>
<path d="M20.571 29.9814C15.0936 29.6189 10.9043 27.6191 10.9043 25.2097" stroke="#AC41C7" stroke-width="1.25" stroke-linecap="round" stroke-linejoin="round"/>
<path d="M21.1751 35.455C15.4041 35.2 10.9043 33.1447 10.9043 30.647V14.9375" stroke="#AC41C7" stroke-width="1.25" stroke-linecap="round" stroke-linejoin="round"/>
<path d="M33.8623 14.9387V20.3762" stroke="#AC41C7" stroke-width="1.25" stroke-linecap="round" stroke-linejoin="round"/>
<path d="M33.2579 27.021H30.8014C30.0237 27.0201 29.3549 27.5714 29.2073 28.335C29.0598 29.0985 29.4751 29.8593 30.1972 30.1482L32.69 31.145C33.4131 31.4328 33.8296 32.194 33.6819 32.9581C33.5342 33.7223 32.8641 34.2735 32.0858 34.271H29.6329" stroke="#AC41C7" stroke-width="1.25" stroke-linecap="round" stroke-linejoin="round"/>
<path d="M31.4443 35.4806V34.2722" stroke="#AC41C7" stroke-width="1.25" stroke-linecap="round" stroke-linejoin="round"/>
<path d="M31.4443 27.0221V25.8137" stroke="#AC41C7" stroke-width="1.25" stroke-linecap="round" stroke-linejoin="round"/>
<path fill-rule="evenodd" clip-rule="evenodd" d="M31.4443 37.8972C35.4484 37.8972 38.6943 34.6513 38.6943 30.6472C38.6943 26.6432 35.4484 23.3972 31.4443 23.3972C27.4403 23.3972 24.1943 26.6432 24.1943 30.6472C24.1943 34.6513 27.4403 37.8972 31.4443 37.8972Z" stroke="#AC41C7" stroke-width="1.25" stroke-linecap="round" stroke-linejoin="round"/>
</svg>
