
<svg width="50" height="48" viewBox="0 0 50 48" fill="none" xmlns="http://www.w3.org/2000/svg">
<rect width="48.31" height="48" transform="translate(0.80957)" fill="none"/>
<path d="M19.3213 15.4001C20.8273 13.894 22.87 13.0479 25 13.0479C27.1299 13.0479 29.1726 13.894 30.6786 15.4001" stroke="#D43DD7" stroke-width="1.25" stroke-linecap="round" stroke-linejoin="round"/>
<path d="M16.2227 12.3026C18.5504 9.97447 21.7078 8.6665 25 8.6665C28.2922 8.6665 31.4496 9.97447 33.7773 12.3026" stroke="#D43DD7" stroke-width="1.25" stroke-linecap="round" stroke-linejoin="round"/>
<path d="M25 31.3333V35.3333" stroke="#D43DD7" stroke-width="1.25" stroke-linecap="round" stroke-linejoin="round"/>
<path fill-rule="evenodd" clip-rule="evenodd" d="M15 21.3333C15 20.2287 15.8954 19.3333 17 19.3333H33C34.1046 19.3333 35 20.2287 35 21.3333V37.3333C35 38.4378 34.1046 39.3333 33 39.3333H17C15.8954 39.3333 15 38.4378 15 37.3333V21.3333Z" stroke="#D43DD7" stroke-width="1.25" stroke-linecap="round" stroke-linejoin="round"/>
<path fill-rule="evenodd" clip-rule="evenodd" d="M24.9997 31.3333C26.4724 31.3333 27.6663 30.1394 27.6663 28.6667C27.6663 27.1939 26.4724 26 24.9997 26C23.5269 26 22.333 27.1939 22.333 28.6667C22.333 30.1394 23.5269 31.3333 24.9997 31.3333Z" stroke="#D43DD7" stroke-width="1.25" stroke-linecap="round" stroke-linejoin="round"/>
<path d="M30.3337 28.6666C30.3337 25.7211 27.9458 23.3333 25.0003 23.3333C22.0548 23.3333 19.667 25.7211 19.667 28.6666" stroke="#D43DD7" stroke-width="1.25" stroke-linecap="round" stroke-linejoin="round"/>
</svg>
