<svg id="svg" version="1.1" xmlns="http://www.w3.org/2000/svg" xmlns:xlink="http://www.w3.org/1999/xlink" width="400" height="400" viewBox="0, 0, 400,400"><g id="svgg"><path id="path0" d="M191.674 6.213 C 181.429 7.028,176.110 7.719,167.566 9.344 C 157.354 11.286,143.824 15.017,135.482 18.191 C 133.087 19.102,125.801 21.995,124.563 22.526 C 123.922 22.801,123.097 23.155,122.731 23.312 C 110.638 28.509,92.310 39.339,82.424 47.127 C 70.621 56.427,60.290 66.283,52.789 75.399 C 52.057 76.289,51.110 77.412,50.686 77.893 C 48.901 79.916,42.201 89.079,39.573 93.089 C 35.257 99.676,34.305 101.177,34.305 101.395 C 34.305 101.505,33.954 102.154,33.525 102.838 C 31.690 105.759,26.750 115.349,24.650 120.067 C 24.079 121.349,23.478 122.698,23.315 123.064 C 21.824 126.415,21.320 127.618,20.871 128.902 C 20.584 129.721,19.958 131.440,19.479 132.723 C 6.544 167.378,4.103 208.377,12.698 246.628 C 14.696 255.520,18.975 269.078,21.602 274.836 C 21.994 275.696,22.315 276.474,22.315 276.565 C 22.315 277.470,30.218 293.155,32.525 296.829 C 32.955 297.513,33.306 298.162,33.306 298.272 C 33.306 298.596,41.415 310.898,43.391 313.572 C 50.546 323.251,62.058 335.944,70.298 343.238 C 72.899 345.540,75.812 348.019,76.871 348.831 C 77.365 349.209,77.843 349.613,77.935 349.728 C 78.027 349.843,78.836 350.494,79.734 351.174 C 80.632 351.854,81.981 352.906,82.731 353.512 C 85.074 355.401,94.217 361.692,98.418 364.305 C 99.151 364.761,100.156 365.410,100.653 365.747 C 101.149 366.085,101.650 366.361,101.767 366.361 C 101.883 366.361,102.377 366.640,102.863 366.980 C 104.365 368.031,109.317 370.732,114.571 373.367 C 118.160 375.166,120.087 376.079,124.563 378.098 C 159.118 393.690,200.801 398.437,237.635 390.974 C 249.063 388.659,263.006 383.973,262.650 382.568 C 262.565 382.232,260.964 374.288,259.093 364.917 C 257.221 355.545,255.643 347.820,255.584 347.750 C 255.526 347.681,254.386 348.033,253.051 348.533 C 238.993 353.800,232.873 355.450,221.500 357.040 C 196.412 360.547,165.212 356.406,142.381 346.540 C 141.832 346.303,140.408 345.705,139.217 345.213 C 136.917 344.261,127.297 339.561,125.062 338.298 C 120.855 335.919,115.854 332.744,109.468 328.399 C 108.600 327.808,99.822 321.016,99.584 320.751 C 99.492 320.649,98.293 319.597,96.919 318.413 C 93.185 315.196,84.462 306.385,81.080 302.415 C 79.442 300.491,77.952 298.754,77.769 298.554 C 77.585 298.354,77.109 297.755,76.710 297.222 C 76.312 296.689,74.960 294.904,73.706 293.256 C 70.316 288.798,65.342 281.236,62.752 276.603 C 60.358 272.321,59.080 269.919,58.231 268.110 C 55.084 261.405,54.621 260.396,54.621 260.245 C 54.621 260.154,54.336 259.451,53.988 258.683 C 38.438 224.352,39.104 177.319,55.677 139.550 C 56.039 138.726,56.566 137.527,56.850 136.886 C 58.540 133.060,63.527 123.410,65.109 120.905 C 65.569 120.176,65.945 119.496,65.945 119.394 C 65.945 119.291,66.225 118.801,66.566 118.305 C 66.908 117.808,68.091 116.025,69.195 114.342 C 76.123 103.781,82.625 95.864,91.301 87.426 C 99.269 79.675,107.208 73.196,114.559 68.446 C 118.833 65.683,120.423 64.696,122.065 63.783 C 122.981 63.273,124.779 62.269,126.062 61.552 C 128.259 60.322,134.653 57.184,137.219 56.078 C 137.860 55.801,138.684 55.443,139.051 55.282 C 181.930 36.377,237.819 39.298,277.935 62.540 C 281.625 64.678,287.125 68.217,291.764 71.440 C 292.929 72.250,297.593 75.833,298.749 76.807 C 307.672 84.326,315.047 91.769,321.641 99.912 C 330.515 110.870,337.949 123.205,344.225 137.386 C 344.692 138.441,346.952 144.126,347.800 146.378 C 361.512 182.813,361.014 228.189,346.548 260.616 C 346.139 261.532,345.447 263.105,345.009 264.112 C 344.306 265.728,340.911 272.505,339.670 274.771 C 335.118 283.076,327.666 293.393,320.306 301.582 L 318.810 303.247 318.411 301.749 C 318.193 300.924,317.723 299.353,317.367 298.256 C 316.679 296.133,314.729 287.935,312.256 276.769 C 311.425 273.014,309.853 265.970,308.763 261.116 C 300.980 226.453,289.604 175.180,285.263 155.204 C 279.347 127.974,277.172 123.552,267.992 120.097 C 257.515 116.154,247.332 119.455,241.285 128.755 C 238.506 133.028,238.358 133.368,230.673 153.122 C 227.280 161.845,215.209 192.156,214.627 193.415 C 214.354 194.007,213.917 195.096,213.655 195.837 C 213.394 196.577,212.963 197.667,212.697 198.258 C 212.432 198.850,211.835 200.233,211.370 201.332 C 207.734 209.934,205.286 215.639,204.465 217.425 C 203.933 218.583,203.497 219.590,203.497 219.664 C 203.497 219.737,203.138 220.588,202.698 221.555 C 202.259 222.523,201.667 223.876,201.383 224.563 C 200.824 225.915,200.355 226.150,200.053 225.229 C 199.949 224.908,199.459 223.972,198.966 223.147 C 198.473 222.323,197.619 220.824,197.069 219.817 C 196.518 218.809,195.791 217.587,195.453 217.101 C 195.115 216.615,194.838 216.130,194.838 216.024 C 194.838 215.917,193.639 213.859,192.173 211.449 C 190.708 209.040,189.509 207.011,189.509 206.942 C 189.509 206.872,189.126 206.208,188.658 205.467 C 188.190 204.726,187.516 203.605,187.159 202.976 C 186.803 202.347,186.211 201.307,185.845 200.666 C 185.479 200.025,184.879 198.976,184.513 198.335 C 182.727 195.209,182.360 194.564,181.580 193.172 C 181.118 192.348,180.443 191.149,180.081 190.508 C 179.719 189.867,179.094 188.743,178.693 188.010 C 178.292 187.277,177.663 186.153,177.296 185.512 C 176.929 184.871,176.130 183.447,175.520 182.348 C 174.911 181.249,174.162 179.900,173.855 179.351 C 173.549 178.801,172.799 177.452,172.190 176.353 C 171.580 175.254,170.785 173.830,170.423 173.189 C 170.061 172.548,169.386 171.349,168.924 170.525 C 168.462 169.700,167.786 168.501,167.423 167.860 C 167.060 167.219,166.311 165.870,165.759 164.863 C 160.504 155.277,157.428 151.740,152.040 149.088 C 144.185 145.222,133.163 147.314,127.209 153.802 C 124.411 156.851,123.410 158.875,121.575 165.196 C 121.176 166.570,120.723 168.068,120.568 168.526 C 120.412 168.984,119.812 171.007,119.234 173.022 C 118.656 175.037,118.049 177.061,117.885 177.519 C 117.722 177.977,117.299 179.400,116.945 180.683 C 116.139 183.606,95.606 255.190,94.017 260.616 C 92.376 266.222,91.812 268.442,91.985 268.616 C 92.175 268.806,128.951 267.163,129.159 266.956 C 129.434 266.680,132.036 255.347,134.590 243.297 C 134.978 241.465,136.194 236.445,137.291 232.140 C 139.810 222.263,139.669 222.804,140.550 219.650 C 140.959 218.185,141.408 216.536,141.548 215.987 C 143.155 209.669,146.894 196.404,147.026 196.554 C 147.082 196.618,148.142 198.618,149.381 200.999 C 150.621 203.381,152.386 206.753,153.303 208.493 C 156.604 214.759,158.279 217.954,163.911 228.726 C 166.487 233.653,169.144 238.725,171.282 242.798 C 172.196 244.538,173.878 247.760,175.021 249.958 C 179.100 257.802,181.406 261.309,184.564 264.471 C 193.117 273.036,206.379 274.174,214.867 267.071 C 218.159 264.317,223.012 256.428,225.805 249.292 C 226.235 248.193,226.688 247.144,226.812 246.961 C 226.936 246.778,227.496 245.429,228.057 243.963 C 228.618 242.498,229.489 240.250,229.991 238.968 C 232.829 231.726,235.701 224.282,236.802 221.316 C 237.142 220.400,237.742 218.826,238.135 217.818 C 238.528 216.811,239.127 215.237,239.467 214.321 C 239.807 213.405,240.372 211.907,240.724 210.991 C 241.076 210.075,243.266 204.230,245.592 198.002 C 247.918 191.774,250.025 186.153,250.275 185.512 C 250.525 184.871,251.057 183.447,251.457 182.348 C 251.857 181.249,252.382 179.825,252.623 179.184 C 252.864 178.543,253.388 177.119,253.788 176.020 C 255.004 172.676,255.028 172.628,255.227 173.189 C 255.470 173.877,257.859 184.607,259.120 190.674 C 259.691 193.422,260.442 197.019,260.788 198.668 C 261.135 200.316,261.807 203.539,262.281 205.828 C 262.756 208.118,263.446 211.415,263.815 213.156 C 264.524 216.505,265.399 220.659,266.464 225.729 C 266.820 227.423,267.402 230.196,267.758 231.890 C 268.114 233.585,268.705 236.395,269.071 238.135 C 269.438 239.875,270.037 242.723,270.403 244.463 C 270.770 246.203,271.368 249.051,271.732 250.791 C 272.676 255.300,273.972 261.482,274.926 266.028 C 275.378 268.181,276.118 271.740,276.570 273.938 C 277.022 276.137,277.923 280.483,278.572 283.597 C 280.968 295.093,285.739 318.856,287.567 328.393 C 288.603 333.797,289.590 338.893,289.761 339.717 C 289.932 340.541,290.460 343.314,290.935 345.878 C 293.038 357.245,295.290 367.942,295.730 368.654 C 296.000 369.092,296.453 368.888,301.915 365.861 C 303.752 364.843,308.949 361.414,311.622 359.457 C 314.407 357.417,317.223 355.266,317.402 355.041 C 317.494 354.926,317.882 354.616,318.266 354.352 C 321.868 351.870,337.152 338.141,340.526 334.357 C 341.246 333.550,343.219 331.391,344.910 329.559 C 349.240 324.869,355.818 316.821,358.658 312.739 C 373.529 291.364,382.046 273.048,388.013 249.608 C 394.570 223.855,395.898 191.713,391.475 165.862 C 388.404 147.909,383.477 132.978,374.826 115.404 C 371.234 108.107,370.298 106.381,367.237 101.415 C 366.221 99.767,364.952 97.669,364.416 96.753 C 363.880 95.837,362.536 93.813,361.430 92.256 C 360.324 90.699,359.071 88.929,358.644 88.322 C 357.582 86.811,353.317 81.185,352.888 80.729 C 352.696 80.526,352.090 79.778,351.540 79.068 C 343.241 68.347,328.876 54.576,316.016 45.012 C 309.998 40.536,306.578 38.128,304.308 36.766 C 303.427 36.236,302.078 35.394,301.311 34.894 C 300.544 34.394,299.617 33.830,299.251 33.641 C 298.884 33.452,298.135 33.021,297.585 32.683 C 296.643 32.103,295.814 31.622,292.839 29.931 C 290.844 28.797,280.820 23.790,278.268 22.652 C 276.986 22.081,275.637 21.480,275.271 21.316 C 250.776 10.385,216.674 4.224,191.674 6.213 " stroke="none" fill="#c42424" fill-rule="evenodd"></path><path id="path1" d="" stroke="none" fill="#c4242c" fill-rule="evenodd"></path><path id="path2" d="" stroke="none" fill="#c82424" fill-rule="evenodd"></path><path id="path3" d="" stroke="none" fill="#c82424" fill-rule="evenodd"></path><path id="path4" d="" stroke="none" fill="#c82424" fill-rule="evenodd"></path></g></svg>