<svg id="Layer_1" data-name="Layer 1" xmlns="http://www.w3.org/2000/svg" viewBox="0 0 668.45 74.97" width="250" height="90"><title>stars-group</title><path d="M273.9,42.2a.28.28,0,0,1,.5,0l.7,1.7c0,.1.1.1.2.2l1.8.6c.3.1.3.5,0,.5l-1.8.6c-.1,0-.1.1-.2.2l-.7,1.7a.28.28,0,0,1-.5,0l-.7-1.7c0-.1-.1-.1-.2-.2l-1.8-.6c-.3-.1-.3-.5,0-.5L273,44c.1,0,.1-.1.2-.2Z" transform="translate(0.13 -0.05)" fill="#e061ff" fill-opacity="0.5"/><path d="M189.9,33.2a.28.28,0,0,1,.5,0l.7,1.7c0,.1.1.1.2.2l1.8.6c.3.1.3.5,0,.5l-1.8.6c-.1,0-.1.1-.2.2l-.7,1.7a.28.28,0,0,1-.5,0l-.7-1.7c0-.1-.1-.1-.2-.2l-1.8-.6c-.3-.1-.3-.5,0-.5L189,35c.1,0,.1-.1.2-.2Z" transform="translate(0.13 -0.05)" fill="#e061ff" fill-opacity="0.5"/><path d="M98.9,17.2a.28.28,0,0,1,.5,0l.7,1.7c0,.1.1.1.2.2l1.8.6c.3.1.3.5,0,.5l-1.8.6c-.1,0-.1.1-.2.2l-.7,1.7a.28.28,0,0,1-.5,0L98.2,21c0-.1-.1-.1-.2-.2l-1.8-.6c-.3-.1-.3-.5,0-.5L98,19c.1,0,.1-.1.2-.2Z" transform="translate(0.13 -0.05)" fill="#e061ff" fill-opacity="0.5"/><path d="M2.9,41.2a.28.28,0,0,1,.5,0l.7,1.7c0,.1.1.1.2.2l1.7.5c.3.1.3.5,0,.5l-1.8.6c-.1,0-.1.1-.2.2l-.7,1.7a.28.28,0,0,1-.5,0l-.7-1.7c0-.1-.1-.1-.2-.2L.1,44.1c-.3-.1-.3-.5,0-.5L2,43c.1,0,.1-.1.2-.2Z" transform="translate(0.13 -0.05)" fill="#e061ff" fill-opacity="0.25"/><path d="M120.9,60.2a.28.28,0,0,1,.5,0l.7,1.7c0,.1.1.1.2.2l1.8.6c.3.1.3.5,0,.5l-1.8.6c-.1,0-.1.1-.2.2l-.7,1.7a.28.28,0,0,1-.5,0l-.7-1.7c0-.1-.1-.1-.2-.2l-1.8-.6c-.3-.1-.3-.5,0-.5L120,62c.1,0,.1-.1.2-.2Z" transform="translate(0.13 -0.05)" fill="#e061ff" fill-opacity="0.5"/><path d="M540.9,27.2a.28.28,0,0,1,.5,0l.7,1.7c0,.1.1.1.2.2l1.8.6c.3.1.3.5,0,.5l-1.8.6c-.1,0-.1.1-.2.2l-.7,1.7a.28.28,0,0,1-.5,0l-.7-1.7c0-.1-.1-.1-.2-.2l-1.8-.6c-.3-.1-.3-.5,0-.5L540,29c.1,0,.1-.1.2-.2Z" transform="translate(0.13 -0.05)" fill="#e061ff" fill-opacity="0.5"/><path d="M664.9,36.2a.28.28,0,0,1,.5,0l.7,1.7c0,.1.1.1.2.2l1.8.6c.3.1.3.5,0,.5l-1.8.6c-.1,0-.1.1-.2.2l-.7,1.7a.28.28,0,0,1-.5,0l-.7-1.7c0-.1-.1-.1-.2-.2l-1.8-.6c-.3-.1-.3-.5,0-.5L664,38c.1,0,.1-.1.2-.2Z" transform="translate(0.13 -0.05)" fill="#e061ff" fill-opacity="0.5"/><path d="M396.4,46.2c.1-.3.4-.3.5,0l.8,2.4c0,.1.1.1.2.2l2.2.9a.38.38,0,0,1,0,.6l-2.2.9c-.1,0-.1.1-.2.2l-.8,2.4c-.1.3-.4.3-.5,0l-.8-2.4c0-.1-.1-.1-.2-.2l-2.2-.9a.38.38,0,0,1,0-.6l2.2-.9c.1,0,.1-.1.2-.2Z" transform="translate(0.13 -0.05)" fill="#e061ff"/><path d="M330.2,52.2a.31.31,0,0,1,.6,0l1,2.7a.22.22,0,0,0,.2.2l2.7,1a.31.31,0,0,1,0,.6l-2.7,1a.22.22,0,0,0-.2.2l-1,2.7a.31.31,0,0,1-.6,0l-1-2.7a.22.22,0,0,0-.2-.2l-2.7-1a.31.31,0,0,1,0-.6l2.7-1a.22.22,0,0,0,.2-.2Z" transform="translate(0.13 -0.05)" fill="#e061ff"/><path d="M375.4,67.2c.1-.3.4-.3.5,0l.8,2.4c0,.1.1.1.2.2l2.2.9a.38.38,0,0,1,0,.6l-2.2.9c-.1,0-.1.1-.2.2l-.8,2.4c-.1.3-.4.3-.5,0l-.8-2.4c0-.1-.1-.1-.2-.2l-2.2-.9a.38.38,0,0,1,0-.6l2.2-.9c.1,0,.1-.1.2-.2Z" transform="translate(0.13 -0.05)" fill="#ff43bd"/><path d="M515.4,18.2c.1-.3.4-.3.5,0l.8,2.4c0,.1.1.1.2.2l2.2.9a.37.37,0,0,1,0,.6l-2.2.9c-.1,0-.1.1-.2.2l-.8,2.4c-.1.3-.4.3-.5,0l-.8-2.4c0-.1-.1-.1-.2-.2l-2.2-.9a.37.37,0,0,1,0-.6l2.2-.9c.1,0,.1-.1.2-.2Z" transform="translate(0.13 -0.05)" fill="#ff43bd"/><path d="M385.4.2a.28.28,0,0,1,.5,0l.8,2.2c0,.1.1.1.2.2l2.2.8a.28.28,0,0,1,0,.5l-2.2.8c-.1,0-.1.1-.2.2l-.8,2.2a.28.28,0,0,1-.5,0l-.8-2.2c0-.1-.1-.1-.2-.2l-2.2-.8a.28.28,0,0,1,0-.5l2.2-.8c.1,0,.1-.1.2-.2Z" transform="translate(0.13 -0.05)" fill="#e061ff"/><path d="M257.4,18.2a.28.28,0,0,1,.5,0l.5,1.5c0,.1.1.1.2.2l1.5.5a.28.28,0,0,1,0,.5l-1.5.5c-.1,0-.1.1-.2.2l-.5,1.5a.28.28,0,0,1-.5,0l-.5-1.5c0-.1-.1-.1-.2-.2l-1.5-.5a.28.28,0,0,1,0-.5l1.5-.5c.1,0,.1-.1.2-.2Z" transform="translate(0.13 -0.05)" fill="#ff44ac"/>


<svg version="1.1" id="Layer_1" xmlns="http://www.w3.org/2000/svg" xmlns:xlink="http://www.w3.org/1999/xlink" x="0px" y="0px"
	 viewBox="0 0 18.7 18.7" style="enable-background:new 0 0 18.7 18.7;" xml:space="preserve">
<style type="text/css">
	.st0{fill:#EFC046;}
	.st1{fill-rule:evenodd;clip-rule:evenodd;fill:#F2AE00;}
	.st2{fill-rule:evenodd;clip-rule:evenodd;fill:url(#SVGID_1_);}
	.st3{fill:#FFFFFF;}
	.st4{fill:none;stroke:#CB9200;stroke-width:1.5;stroke-linecap:round;stroke-linejoin:round;}
</style>
<path class="st0" d="M17.4,4.7C20,9.1,18.5,14.8,14,17.4C9.5,20,3.8,18.5,1.3,14C-1.3,9.5,0.2,3.8,4.7,1.3
	C9.1-1.3,14.8,0.2,17.4,4.7z"/>
<path class="st1" d="M13.4,16.4c3.9-2.2,5.2-7.2,3-11.1c-2.2-3.9-7.2-5.2-11.1-3c-3.9,2.2-5.2,7.2-3,11.1
	C4.6,17.3,9.5,18.6,13.4,16.4z M14,17.4c4.5-2.6,6-8.3,3.4-12.8c-2.6-4.5-8.3-6-12.7-3.4C0.2,3.8-1.3,9.5,1.3,14
	C3.8,18.5,9.5,20,14,17.4z"/>
<linearGradient id="SVGID_1_" gradientUnits="userSpaceOnUse" x1="4.6639" y1="17.0474" x2="14.0041" y2="0.8876" gradientTransform="matrix(1 0 0 -1 0 18.3015)">
	<stop  offset="0" style="stop-color:#FFFFFF"/>
	<stop  offset="1" style="stop-color:#FFFFFF;stop-opacity:0"/>
</linearGradient>
<path class="st2" d="M13.4,16.4c3.9-2.2,5.2-7.2,3-11.1c-2.2-3.9-7.2-5.2-11.1-3c-3.9,2.2-5.2,7.2-3,11.1
	C4.6,17.3,9.5,18.6,13.4,16.4z M14,17.4c4.5-2.6,6-8.3,3.4-12.8c-2.6-4.5-8.3-6-12.7-3.4C0.2,3.8-1.3,9.5,1.3,14
	C3.8,18.5,9.5,20,14,17.4z"/>
<path class="st3" d="M5.6,3.3C5.6,3.3,5.7,3.3,5.6,3.3L6,4c0,0,0,0,0,0l0.8,0.3c0,0,0,0,0,0.1L6,4.6c0,0,0,0,0,0L5.7,5.3
	c0,0,0,0-0.1,0L5.3,4.6c0,0,0,0,0,0L4.5,4.4c0,0,0,0,0-0.1l0.8-0.3c0,0,0,0,0,0L5.6,3.3z"/>
<path class="st4" d="M9.1,9.9v4"/>
<path class="st4" d="M11,6.3L9.1,9.9L7.2,6.3"/>
<path class="st4" d="M7.6,10.3h2.9"/>
<path class="st4" d="M7.6,12.5h2.9"/>
</svg>

</svg>